<?xml version="1.0" encoding="UTF-8" standalone="no"?><svg width="343" height="24" viewBox="0 0 343 24" fill="none" xmlns="http://www.w3.org/2000/svg">
<path d="M10.4384 1.73828L20.8612 12.1611L10.4384 22.5839L0.015625 12.1611L10.4384 1.73828Z" fill="#D9D9D9"/>
<path d="M10.4384 1.73828L0.015625 12.1611L10.4384 12.1611L10.4384 1.73828Z" fill="white"/>
<path d="M10.4384 1.73828L20.8612 12.1611L10.4384 12.1611L10.4384 1.73828Z" fill="white"/>
<path d="M10.4384 22.5839L0.015625 12.1611L10.4384 12.1611L10.4384 22.5839Z" fill="white"/>
<path d="M10.4384 22.5839L20.8612 12.1611L10.4384 12.1611L10.4384 22.5839Z" fill="white"/>
<path d="M39.9281 14.9625C39.3211 16.2754 38.4041 16.9318 37.177 16.9318C36.6625 16.9318 36.2205 16.8229 35.851 16.6052C35.475 16.4205 35.1715 16.1797 34.9406 15.8828C34.6569 15.5728 34.4689 15.167 34.3765 14.6657C34.271 14.1643 34.2182 13.2044 34.2182 11.786C34.2182 10.3676 34.271 9.4011 34.3765 8.88652C34.4689 8.39833 34.6569 7.9992 34.9406 7.68914C35.1715 7.39226 35.475 7.14487 35.851 6.94695C36.2205 6.75564 36.6625 6.65338 37.177 6.64018C37.8763 6.65338 38.4701 6.85459 38.9583 7.24383C39.4267 7.65285 39.7499 8.14764 39.9281 8.72819H42.2437C42.0128 7.52091 41.4586 6.50824 40.5812 5.69019C39.7038 4.87874 38.569 4.46641 37.177 4.45322C36.0423 4.46641 35.0956 4.7369 34.337 5.26467C33.5651 5.78585 33.0043 6.3796 32.6547 7.04591C32.437 7.39556 32.2753 7.85407 32.1698 8.42142C32.0708 8.98878 32.0213 10.1103 32.0213 11.786C32.0213 13.4353 32.0708 14.5502 32.1698 15.1308C32.2226 15.4408 32.2885 15.6981 32.3677 15.9026C32.4535 16.1005 32.5491 16.3084 32.6547 16.5261C33.0043 17.1924 33.5651 17.7795 34.337 18.2875C35.0956 18.8153 36.0423 19.0924 37.177 19.1187C38.4305 19.1187 39.5157 18.7625 40.4328 18.05C41.3234 17.3309 41.927 16.3018 42.2437 14.9625H39.9281ZM45.5568 14.1115C45.57 15.6288 46.0714 16.8328 47.0609 17.7234C48.0307 18.6405 49.238 19.1056 50.6828 19.1187C52.154 19.1056 53.3711 18.6405 54.3343 17.7234C55.2909 16.8328 55.7824 15.6288 55.8088 14.1115V4.57197H53.6218V13.874C53.6086 14.857 53.3316 15.6058 52.7906 16.1203C52.2364 16.6613 51.5338 16.9318 50.6828 16.9318C49.8318 16.9318 49.1357 16.6613 48.5948 16.1203C48.0406 15.6058 47.7569 14.857 47.7437 13.874V4.57197H45.5568V14.1115ZM60.6162 19H69.8291V16.9318H62.8031V12.6964H68.8V10.7568H62.8031V6.64018H69.8291V4.57197H60.6162V19ZM73.924 19H80C81.1347 19 82.0814 18.6207 82.8401 17.862C83.6054 17.1363 83.9946 16.15 84.0078 14.9032C84.0078 14.1511 83.8198 13.4551 83.4437 12.8151C83.0413 12.195 82.4475 11.7827 81.6625 11.5782V11.5386C82.0781 11.3407 82.4278 11.1197 82.7114 10.8756C82.9951 10.6447 83.2128 10.4006 83.3646 10.1433C83.6614 9.60232 83.8033 9.03496 83.7901 8.44121C83.7901 7.28011 83.4305 6.34661 82.7114 5.64071C81.9989 4.94141 80.9335 4.58516 79.5151 4.57197H73.924V19ZM79.4755 12.5974C80.287 12.6106 80.8807 12.825 81.2568 13.2407C81.6328 13.6629 81.8208 14.1709 81.8208 14.7646C81.8208 15.3452 81.6328 15.8465 81.2568 16.2688C80.8807 16.6976 80.287 16.9186 79.4755 16.9318H76.111V12.5974H79.4755ZM79.2677 6.52144C80.066 6.53463 80.6531 6.72925 81.0292 7.10529C81.4118 7.50771 81.6031 7.9992 81.6031 8.57976C81.6031 9.16031 81.4118 9.6419 81.0292 10.0245C80.6531 10.4402 80.066 10.648 79.2677 10.648H76.111V6.52144H79.2677ZM88.1917 19H90.2599V8.72819H88.1917V19ZM88.1917 6.64018H90.2599V4.57197H88.1917V6.64018ZM102.628 14.9625C102.021 16.2754 101.104 16.9318 99.8766 16.9318C99.3621 16.9318 98.92 16.8229 98.5506 16.6052C98.1746 16.4205 97.8711 16.1797 97.6402 15.8828C97.3565 15.5728 97.1685 15.167 97.0761 14.6657C96.9706 14.1643 96.9178 13.2044 96.9178 11.786C96.9178 10.3676 96.9706 9.4011 97.0761 8.88652C97.1685 8.39833 97.3565 7.9992 97.6402 7.68914C97.8711 7.39226 98.1746 7.14487 98.5506 6.94695C98.92 6.75564 99.3621 6.65338 99.8766 6.64018C100.576 6.65338 101.17 6.85459 101.658 7.24383C102.126 7.65285 102.45 8.14764 102.628 8.72819H104.943C104.712 7.52091 104.158 6.50824 103.281 5.69019C102.403 4.87874 101.269 4.46641 99.8766 4.45322C98.7419 4.46641 97.7952 4.7369 97.0365 5.26467C96.2647 5.78585 95.7039 6.3796 95.3543 7.04591C95.1366 7.39556 94.9749 7.85407 94.8694 8.42142C94.7704 8.98878 94.7209 10.1103 94.7209 11.786C94.7209 13.4353 94.7704 14.5502 94.8694 15.1308C94.9222 15.4408 94.9881 15.6981 95.0673 15.9026C95.1531 16.1005 95.2487 16.3084 95.3543 16.5261C95.7039 17.1924 96.2647 17.7795 97.0365 18.2875C97.7952 18.8153 98.7419 19.0924 99.8766 19.1187C101.13 19.1187 102.215 18.7625 103.132 18.05C104.023 17.3309 104.627 16.3018 104.943 14.9625H102.628ZM115.419 19H117.606V10.0047H117.645L120.664 16.9318H122.485L125.503 10.0047H125.552V19H127.739V4.57197H125.671L121.614 13.9729L117.477 4.57197H115.419V19ZM135.357 13.8344L137.445 7.5308H137.485L139.573 13.8344H135.357ZM141.314 19H143.62L138.375 4.57197H136.544L131.3 19H133.615L134.724 15.774H140.196L141.314 19ZM149.387 6.52144H152.811C153.51 6.52144 154.045 6.66987 154.414 6.96674C154.883 7.3032 155.123 7.84747 155.137 8.59955C155.137 9.22628 154.935 9.75405 154.533 10.1829C154.124 10.6447 153.51 10.8822 152.692 10.8954H149.387V6.52144ZM147.2 19H149.387V12.8349H152.178L155.156 19H157.759L154.414 12.5974C156.248 11.8915 157.178 10.5589 157.205 8.59955C157.165 7.26692 156.687 6.24106 155.77 5.52196C155.011 4.88863 154.032 4.57197 152.831 4.57197H147.2V19ZM161.597 19H163.784V14.6063L166.317 11.9443L170.245 19H172.838L167.732 10.262L172.353 4.57197H169.761L163.823 12.0037H163.784V4.57197H161.597V19ZM176.389 19H185.602V16.9318H178.576V12.6964H184.573V10.7568H178.576V6.64018H185.602V4.57197H176.389V19ZM192.141 19H194.338V6.52144H198.286V4.57197H188.192V6.52144H192.141V19ZM201.856 19H204.043V4.57197H201.856V19ZM209.108 19H211.295V8.74798H211.335L217.856 19H219.924V4.57197H217.737V14.824H217.698L211.166 4.57197H209.108V19ZM229.689 13.1219H232.628V13.874C232.615 14.7778 232.331 15.5068 231.777 16.061C231.223 16.6415 230.521 16.9318 229.67 16.9318C229.155 16.9318 228.713 16.8229 228.344 16.6052C227.967 16.4205 227.664 16.1797 227.433 15.8828C227.149 15.5728 226.961 15.167 226.869 14.6657C226.763 14.1643 226.711 13.2044 226.711 11.786C226.711 10.3676 226.763 9.4011 226.869 8.88652C226.961 8.39833 227.149 7.9992 227.433 7.68914C227.664 7.39226 227.967 7.14487 228.344 6.94695C228.713 6.75564 229.155 6.65338 229.67 6.64018C230.369 6.65338 230.963 6.85459 231.451 7.24383C231.919 7.65285 232.242 8.14764 232.421 8.72819H234.736C234.505 7.52091 233.951 6.50824 233.074 5.69019C232.196 4.87874 231.062 4.46641 229.67 4.45322C228.535 4.46641 227.588 4.7369 226.829 5.26467C226.058 5.78585 225.497 6.3796 225.147 7.04591C224.929 7.39556 224.768 7.85407 224.662 8.42142C224.563 8.98878 224.514 10.1103 224.514 11.786C224.514 13.4353 224.563 14.5502 224.662 15.1308C224.715 15.4408 224.781 15.6981 224.86 15.9026C224.946 16.1005 225.042 16.3084 225.147 16.5261C225.497 17.1924 226.058 17.7795 226.829 18.2875C227.588 18.8153 228.535 19.0924 229.67 19.1187C231.141 19.0924 232.361 18.5943 233.331 17.6245C234.294 16.6481 234.789 15.4375 234.815 13.9927V11.0537H229.689V13.1219ZM248.853 13.8344L250.941 7.5308H250.981L253.069 13.8344H248.853ZM254.811 19H257.116L251.872 4.57197H250.041L244.796 19H247.112L248.22 15.774H253.693L254.811 19ZM267.733 14.9625C267.126 16.2754 266.209 16.9318 264.982 16.9318C264.467 16.9318 264.025 16.8229 263.656 16.6052C263.28 16.4205 262.976 16.1797 262.745 15.8828C262.461 15.5728 262.273 15.167 262.181 14.6657C262.076 14.1643 262.023 13.2044 262.023 11.786C262.023 10.3676 262.076 9.4011 262.181 8.88652C262.273 8.39833 262.461 7.9992 262.745 7.68914C262.976 7.39226 263.28 7.14487 263.656 6.94695C264.025 6.75564 264.467 6.65338 264.982 6.64018C265.681 6.65338 266.275 6.85459 266.763 7.24383C267.231 7.65285 267.555 8.14764 267.733 8.72819H270.048C269.817 7.52091 269.263 6.50824 268.386 5.69019C267.508 4.87874 266.374 4.46641 264.982 4.45322C263.847 4.46641 262.9 4.7369 262.142 5.26467C261.37 5.78585 260.809 6.3796 260.459 7.04591C260.242 7.39556 260.08 7.85407 259.974 8.42142C259.875 8.98878 259.826 10.1103 259.826 11.786C259.826 13.4353 259.875 14.5502 259.974 15.1308C260.027 15.4408 260.093 15.6981 260.172 15.9026C260.258 16.1005 260.354 16.3084 260.459 16.5261C260.809 17.1924 261.37 17.7795 262.142 18.2875C262.9 18.8153 263.847 19.0924 264.982 19.1187C266.235 19.1187 267.32 18.7625 268.237 18.05C269.128 17.3309 269.732 16.3018 270.048 14.9625H267.733ZM276.182 13.8344L278.27 7.5308H278.309L280.397 13.8344H276.182ZM282.139 19H284.445L279.2 4.57197H277.369L272.124 19H274.44L275.548 15.774H281.021L282.139 19ZM288.025 19H292.923C294.005 19 294.919 18.7625 295.664 18.2875C296.417 17.8455 297.004 17.2847 297.426 16.6052C297.584 16.3479 297.719 16.1005 297.832 15.863C297.937 15.6189 298.016 15.3419 298.069 15.0318C298.181 14.4183 298.237 13.3363 298.237 11.786C298.237 10.328 298.201 9.30215 298.128 8.7084C298.036 8.11465 297.815 7.5473 297.465 7.00633C296.489 5.39662 295.025 4.58516 293.072 4.57197H288.025V19ZM290.212 6.64018H292.824C293.933 6.6138 294.79 7.01952 295.397 7.85736C295.694 8.19382 295.882 8.63253 295.961 9.1735C296.021 9.71447 296.05 10.6117 296.05 11.8652C296.05 13.1516 296.021 14.029 295.961 14.4974C295.895 14.9724 295.74 15.365 295.496 15.675C294.942 16.5129 294.051 16.9318 292.824 16.9318H290.212V6.64018ZM302.817 19H312.03V16.9318H305.004V12.6964H311.001V10.7568H305.004V6.64018H312.03V4.57197H302.817V19ZM316.125 19H318.312V10.0047H318.351L321.37 16.9318H323.19L326.209 10.0047H326.258V19H328.445V4.57197H326.377L322.32 13.9729L318.183 4.57197H316.125V19ZM336.023 19H338.082V13.0625L342.426 4.57197H340.11L337.052 10.9745L333.995 4.57197H331.679L336.023 13.0625V19Z" fill="white"/>
</svg>
